<?xml version="1.0" encoding="UTF-8" standalone="no" ?>
<!DOCTYPE svg PUBLIC "-//W3C//DTD SVG 1.1//EN" "http://www.w3.org/Graphics/SVG/1.1/DTD/svg11.dtd">
<svg xmlns="http://www.w3.org/2000/svg" xmlns:xlink="http://www.w3.org/1999/xlink" version="1.1" width="1080" height="1080" viewBox="0 0 1080 1080" xml:space="preserve">
<desc>Created with Fabric.js 5.2.4</desc>
<defs>
</defs>
<g transform="matrix(1 0 0 1 540 540)" id="cee2d348-6249-4a81-872e-ae4de35c634a"  >
<rect style="stroke: none; stroke-width: 1; stroke-dasharray: none; stroke-linecap: butt; stroke-dashoffset: 0; stroke-linejoin: miter; stroke-miterlimit: 4; fill: rgb(255,255,255); fill-rule: nonzero; opacity: 1; visibility: hidden;" vector-effect="non-scaling-stroke"  x="-540" y="-540" rx="0" ry="0" width="1080" height="1080" />
</g>
<g transform="matrix(1 0 0 1 540 540)" id="33e059dc-9d20-4246-b2da-6e8652db805a"  >
</g>
<g transform="matrix(2.12 0 0 2.12 540 540)"  >
<path style="stroke: none; stroke-width: 1; stroke-dasharray: none; stroke-linecap: butt; stroke-dashoffset: 0; stroke-linejoin: miter; stroke-miterlimit: 4; fill: rgb(0,0,0); fill-rule: nonzero; opacity: 1;" vector-effect="non-scaling-stroke"  transform=" translate(-269.9, -270.23)" d="M 269.901 520.012 C 212.23200000000003 520.012 158.008 498.26899999999995 117.21700000000001 458.78799999999995 C 76.387 419.27 53.9 366.715 53.9 310.806 C 53.9 271.55699999999996 64.495 233.76299999999998 84.539 201.512 C 87.078 197.428 88.801 192.826 90.625 187.954 C 93.294 180.82600000000002 96.055 173.454 101.631 167.441 C 107.626 160.978 116.179 156.466 124.45 152.103 C 129.621 149.375 134.506 146.799 138.561 143.883 C 149.479 136.03300000000002 161.3 129.154 173.697 123.435 C 176.412 120.24000000000001 175.477 100.577 174.856 87.52600000000001 C 173.594 60.991000000000014 172.29 33.552000000000014 182.981 23.161000000000016 C 184.811 21.383000000000017 187.14 20.442000000000014 189.716 20.442000000000014 C 197.982 20.442000000000014 209.63600000000002 31.025000000000013 224.35500000000002 51.89800000000001 C 235.074 67.09900000000002 244.919 84.45700000000001 246.30100000000002 90.59 C 247.068 93.997 253.50300000000001 101.22 256.586 102.136 C 256.56100000000004 102.12599999999999 256.797 102.16499999999999 257.378 102.16499999999999 C 258.317 102.16499999999999 259.62399999999997 102.073 261.137 101.967 C 263.507 101.801 266.457 101.594 269.9 101.594 C 282.082 101.594 293.596 104.544 304.731 107.39699999999999 C 315.3 110.10499999999999 325.284 112.663 335.307 112.663 C 335.309 112.663 335.31 112.663 335.31100000000004 112.663 C 336.28700000000003 112.663 337.261 112.63799999999999 338.208 112.589 C 339.67100000000005 112.512 344.12300000000005 110.381 346.423 108.655 C 353.711 103.185 364.743 91.205 376.423 78.522 C 401.088 51.73800000000001 416.813 35.47500000000001 427.188 35.47500000000001 C 430.197 35.47500000000001 432.78499999999997 36.81400000000001 434.473 39.24500000000001 C 439.974 47.161000000000016 442.2 52.97300000000001 443.295 62.277000000000015 C 443.41400000000004 63.29100000000002 443.562 64.42400000000002 443.724 65.67500000000001 C 445.679 80.77400000000002 449.731 112.06800000000001 435.702 153.72500000000002 C 436.39 159.13400000000001 438.59499999999997 171.31100000000004 442.384 176.19800000000004 C 468.817 210.30400000000003 485.897 263.14000000000004 485.897 310.80500000000006 C 485.897 366.71400000000006 463.411 419.26900000000006 422.582 458.78700000000003 C 381.792 498.269 327.569 520.012 269.901 520.012 z M 189.718 29.442 C 189.457 29.442 189.387 29.487000000000002 189.256 29.615 C 181.474 37.178 182.846 66.03099999999999 183.848 87.099 C 185.119 113.83200000000001 185.42100000000002 127.94900000000001 177.64800000000002 131.525 C 165.70600000000002 137.02 154.32300000000004 143.637 143.817 151.191 C 139.257 154.469 133.865 157.313 128.651 160.064 C 121.04700000000001 164.076 113.183 168.224 108.23200000000001 173.56199999999998 C 103.86300000000001 178.273 101.52800000000002 184.509 99.055 191.112 C 97.15700000000001 196.18 95.19500000000001 201.421 92.18400000000001 206.26399999999998 C 73.026 237.086 62.9 273.237 62.9 310.806 C 62.9 421.2 155.76 511.01199999999994 269.9 511.01199999999994 C 384.038 511.01199999999994 476.89599999999996 421.19999999999993 476.89599999999996 310.8059999999999 C 476.89599999999996 265.01199999999994 460.55699999999996 214.33999999999992 435.27 181.71299999999994 C 428.95799999999997 173.57299999999992 426.858 155.73799999999994 426.639 153.73199999999994 L 426.531 152.73599999999993 L 426.855 151.78699999999992 C 440.6 111.62999999999992 436.682 81.37299999999992 434.798 66.83199999999992 C 434.63100000000003 65.54199999999992 434.48 64.37399999999992 434.358 63.32999999999992 C 433.44100000000003 55.54299999999992 431.753 51.120999999999924 427.148 44.47599999999992 C 419.92900000000003 44.56399999999992 397.738 68.66299999999993 383.04400000000004 84.61899999999991 C 371.076 97.61499999999991 359.773 109.88999999999992 351.82400000000007 115.85399999999991 C 349.56300000000005 117.54999999999991 343.11600000000004 121.34499999999991 338.6770000000001 121.57599999999991 C 337.57400000000007 121.63399999999992 336.44200000000006 121.66299999999991 335.3110000000001 121.66299999999991 C 335.3100000000001 121.66299999999991 335.3080000000001 121.66299999999991 335.3070000000001 121.66299999999991 C 324.14900000000006 121.66299999999991 313.14200000000005 118.84299999999992 302.49700000000007 116.11499999999991 C 291.90100000000007 113.40099999999991 280.9460000000001 110.59399999999991 269.89900000000006 110.59399999999991 C 266.7710000000001 110.59399999999991 263.99600000000004 110.7889999999999 261.76500000000004 110.94499999999991 C 260.083 111.0629999999999 258.63100000000003 111.1649999999999 257.37700000000007 111.1649999999999 C 256.01700000000005 111.1649999999999 254.96000000000006 111.0399999999999 254.04900000000006 110.7709999999999 C 247.31900000000007 108.7879999999999 238.89500000000007 98.6709999999999 237.52000000000007 92.5669999999999 C 236.65900000000008 88.7439999999999 228.23600000000008 73.0199999999999 216.99900000000008 57.0839999999999 C 201.615 35.264 192.612 29.442 189.718 29.442 z M 146.376 337.107 C 149.248 336.117 159.752 336.134 145.184 320.80100000000004 C 164.927 342.653 205.823 294.44200000000006 151.809 279.15500000000003 C 137.257 275.035 96.905 276.528 102.66399999999999 302.649 C 103.81299999999999 305.372 116.25799999999998 316.836 116.65099999999998 315.717 C 100.52499999999998 313.324 111.28299999999999 336.97999999999996 127.74199999999998 339.086 C 130.927 339.497 143.34 338.154 146.376 337.107 z M 147.298 367.527 C 118.34700000000001 347.24899999999997 89.24000000000001 374.032 119.224 385.131 C 140.486 392.99699999999996 143.036 389.20099999999996 162.312 392.263 C 175.204 394.31399999999996 249.473 398.291 250.73900000000003 375.197 C 247.66700000000003 375.476 250.40400000000002 381.302 250.73900000000003 375.197 C 227.85900000000004 377.27 204.21800000000002 382.134 194.25200000000004 384.051 C 186.84900000000005 385.47499999999997 179.15800000000004 377.789 169.95700000000005 374.61699999999996 L 147.298 367.527 z M 277.764 218.004 C 297.889 216.85399999999998 314.75600000000003 242.541 314.75600000000003 242.541 C 314.75600000000003 242.541 297.889 269.566 279.48800000000006 268.992 C 261.08600000000007 268.41700000000003 261.92400000000004 261.916 249.01000000000005 258.833 C 236.17 255.766 257.638 219.154 277.764 218.004 z M 272.037 230.88 C 274.772 227.321 282.26399999999995 241.581 283.38 232.005 C 283.762 228.746 282.614 227.213 270.154 227.403 C 257.69599999999997 227.595 252.137 254.547 259.996 259.032 C 266.056 262.489 270.457 268.407 268.53499999999997 260.763 C 266.928 254.38 268.024 236.1 272.037 230.88 z M 148.327 195.657 C 163.66 195.657 168.643 205.625 169.028 211.185 C 169.411 216.744 159.444 238.595 149.477 238.595 C 144.79500000000002 238.597 132.329 232.067 131.077 222.018 C 129.663 210.674 140.195 195.657 148.327 195.657 z M 146.213 202.388 C 149.081 198.281 135.208 205.314 136.18099999999998 217.967 C 137.154 230.61700000000002 150.07299999999998 236.29500000000002 147.23899999999998 232.43300000000002 C 136.78599999999997 218.19700000000003 144.50399999999996 199.83800000000002 141.68699999999998 205.10200000000003 C 144.511 207.23100000000002 150.45399999999998 202.63100000000003 143.75099999999998 201.51700000000002 C 143.329 201.448 145.959 202.751 146.213 202.388 z M 162.432 205.89 C 160.898 205.89 159.654 207.22 159.654 208.862 C 159.654 210.50199999999998 160.898 211.833 162.432 211.833 C 163.96699999999998 211.833 165.212 210.502 165.212 208.862 C 165.212 207.22 163.967 205.89 162.432 205.89 z" stroke-linecap="round" />
</g>
</svg>